<?xml version="1.0" encoding="UTF-8" standalone="no"?>
<svg xmlns="http://www.w3.org/2000/svg" class="card" face="2B" height="3.5in" preserveAspectRatio="none" viewBox="-120 -168 240 336" width="2.5in"><rect width="239" height="335" x="-119.5" y="-167.5" rx="12" ry="12" fill="white" stroke="black"></rect><rect width="216.095" height="313.967" x="-108.047" y="-156.983" fill="red"></rect><path d="M0,0v-1v-1h1v-1h1h1h1h1v-1h-1v-1h-1v1h-1v-1h-1v1h-1h-1v1h1M-1,-3v1v1v1v1h-1h-1h-1v1h1h1M-4,2h-1v-1h-1v1v1v1v1v1v1v1h-1v-1v-1v-1h-1v-1h1v-1v-1v-1v-1h1h1h1v-1h1h1v-1h-1h-1h-1v-1h-1v-1h-1v-1h1v-1h1v1h1v-1v-1h1h1v-1h-1h-1h-1v1h-1h-1h-1v1h1M-8,-6v1v1v1v1v1v1h-1h-1v-1h-1v1v1h1v1h1v1h-1h-1h-1v1v1h1v1h-1h-1v-1v-1h-1h-1v1h-1v1h1v1h1h1v1h-1h-1h-1h-1v-1v-1v-1v-1v-1v-1h1v-1h1v-1v-1h-1h-1v1v1M-17,0h1M-17,-1v-1h1h1v-1h-1v-1h-1v-1h1v-1h1h1v-1v-1h-1v1h-1h-1v1M-17,-7v-1h1v-1h-1v-1v-1v-1v-1v-1v-1h1h1h1v-1h1v-1h-1h-1v1h-1h-1v-1v-1h1h1h1v-1v-1h-1h-1h-1v1h1h1M-17,-20v-1h1h1h1h1h1v-1h-1h-1v-1h-1v1h-1h-1v-1v-1h1v-1h1v1h1h1v1h1v-1v-1h1h1h1h1v1v1h1v-1h1v1h1h1h1h1v-1v-1h1v1v1v1h1v-1v-1h1v1v1h1h1h1v1h-1v1h-1v-1h-1h-1v1v1v1h1h1v-1h-1v-1M2,-19h1h1v1h1h1h1v1h-1v1h1h1v-1v-1h1h1v-1v-1v-1v-1h-1v1v1v1h-1v-1h-1v-1h-1v1h-1h-1M5,-20v-1v-1v-1v-1h-1v-1h-1v1v1h-1v-1v-1h-1h-1M3,-23h1M4,-25h1h1h1v1h-1v1h1h1h1v-1h1v1h1h1h1v1h1v1v1h1v-1v-1h1v1v1v1h1v1v1h-1v1h1v1h-1h-1h-1v-1v-1v-1h1v-1h-1h-1h-1h-1v-1v-1v-1h1v1h1v1h-1M11,-19v1h1h1v1v1v1h-1v-1h-1v1v1h-1v1v1h1h1v-1h1h1h1h1h1v-1h-1h-1h-1h-1h-1M17,-13v1h-1v1h1v1v1h-1h-1h-1h-1v-1v-1h-1h-1h-1h-1v1h-1v1v1h1v1h1v1h-1h-1v-1M9,-6v1v1h1v-1M10,-4h1M10,-7v-1h1v-1v-1h1v1v1v1h-1M11,-10h-1v1h-1M8,-9h-1v-1v-1v-1v-1h1h1v1h-1v1M9,-13v-1h-1v-1h1h1v-1v-1h1h1M10,-17h-1v1M8,-15h-1v1h-1v-1h-1v-1h-1h-1v-1h-1v1v1h-1v1v1h1v-1h1h1v1v1h-1h-1v1v1h-1v-1h-1v-1h1M0,-12h-1h-1v-1v-1v-1h-1h-1v1h1v1v1h-1v-1h-1h-1h-1v-1v-1h1h1v1h-1M-5,-15v-1h1h1h1h1h1v-1h1v1M0,-17h-1v-1v-1h-1v-1h1v-1h-1v-1h-1h-1v1h-1v-1h-1h-1h-1v1h-1h-1v1h-1v-1v-1h1h1v-1v-1h-1h-1v1h1M-11,-20v1h-1v-1h-1v1v1h1h1v1h1v-1h1v-1v-1h1v1h1h1h1v1h1v1h-1h-1h-1h-1v-1h1h1M-8,-17h-1v1h-1h-1h-1v1v1v1h1v-1v-1h1v1v1v1h1v-1h1v-1v-1h-1v1M-8,-15v-1h1h1M-8,-13v1h1h1v1h-1h-1v1h1h1h1v1h-1h-1v1h-1v-1h-1v-1v-1h-1v1v1v1h-1v1v1v1v1h1h1v-1v-1h-1v1M-10,-6v-1h1v-1M-9,-4v1h-1h-1h-1v-1h-1h-1v1v1h1v-1M-13,-2h1h1h1h1v1M-12,-2v1v1v1v1h1M-12,2h-1v-1h-1v-1v-1h1v1M-14,1v1v1h-1v-1M-15,3h-1v1M-14,3h1M-14,-4v-1h-1v1M-14,-5h1h1v-1v-1h-1v-1v-1h1v-1v-1h-1h-1v1v1h-1v-1h-1v-1v-1h1v1M-15,-12v-1h1h1v1h-1M-13,-12h1h1v1v1v1M-13,-13v-1v-1M-13,-14h-1h-1h-1v1M-14,-10h1M-12,-9v1M-13,-7v1M-7,-8h1M-5,-9h1v-1v-1h1h1h1v1h1v1h1v1v1h-1v-1h-1v1v1h-1v1h1h1v-1h1h1h1h1v-1h-1h-1v-1v-1h1v-1h1v1v1h1v-1h1v-1v-1v-1v-1h-1v1v1h-1h-1M5,-11v1M5,-13v-1M5,-8v1v1v1M4,-8h-1M-2,-5v1v1h-1v-1v-1v-1M-3,-4h-1v1M-4,-4h-1M-1,-8v-1h-1h-1v-1h1M-4,-11h-1v-1M-12,-16v-1M-4,-17h1h1v-1h-1v-1h-1v-1h-1h-1v-1h-1v1M-4,-20h1v-1M-9,-19h-1M0,-16v1h-1v1v1h1v-1M3,-12v-1M4,-14v-1h-1M3,-17v-1M4,-16v-1h1M13,-11h1v-1h-1M14,-12h1v1v1h-1M15,-10h1M12,-13h-1M15,-18v1v1M16,-17v-1M17,-19v-1v-1v-1v-1v-1h-1v-1h-1v1h-1v-1h-1v1h-1v-1h-1v1M11,-25h-1h-1h-1v1M14,-24v1h1h1M16,-25h1M8,-23v1v1M8,-22h-1h-1M6,-20v1h1M6,-19h-1M-2,-25h-1h-1h-1v1h1h1M-5,-25h-1h-1M-12,-25h-1h-1M-16,-25h-1M-16,-24v1M-16,-18v1M-17,-4v1M-17,7h1M-14,7v-1v-1M-9,3h1v-1v-1h-1M-8,-1h1v-1v-1M-7,-2h1v1h1M-2,-1v1h-1" transform="scale(6.117)" fill="none" stroke="white" stroke-width="0.674" stroke-linecap="square" stroke-linejoin="miter"></path><path d="M0,0v-1v-1h1v-1h1h1h1h1v-1h-1v-1h-1v1h-1v-1h-1v1h-1h-1v1h1M-1,-3v1v1v1v1h-1h-1h-1v1h1h1M-4,2h-1v-1h-1v1v1v1v1v1v1v1h-1v-1v-1v-1h-1v-1h1v-1v-1v-1v-1h1h1h1v-1h1h1v-1h-1h-1h-1v-1h-1v-1h-1v-1h1v-1h1v1h1v-1v-1h1h1v-1h-1h-1h-1v1h-1h-1h-1v1h1M-8,-6v1v1v1v1v1v1h-1h-1v-1h-1v1v1h1v1h1v1h-1h-1h-1v1v1h1v1h-1h-1v-1v-1h-1h-1v1h-1v1h1v1h1h1v1h-1h-1h-1h-1v-1v-1v-1v-1v-1v-1h1v-1h1v-1v-1h-1h-1v1v1M-17,0h1M-17,-1v-1h1h1v-1h-1v-1h-1v-1h1v-1h1h1v-1v-1h-1v1h-1h-1v1M-17,-7v-1h1v-1h-1v-1v-1v-1v-1v-1v-1h1h1h1v-1h1v-1h-1h-1v1h-1h-1v-1v-1h1h1h1v-1v-1h-1h-1h-1v1h1h1M-17,-20v-1h1h1h1h1h1v-1h-1h-1v-1h-1v1h-1h-1v-1v-1h1v-1h1v1h1h1v1h1v-1v-1h1h1h1h1v1v1h1v-1h1v1h1h1h1h1v-1v-1h1v1v1v1h1v-1v-1h1v1v1h1h1h1v1h-1v1h-1v-1h-1h-1v1v1v1h1h1v-1h-1v-1M2,-19h1h1v1h1h1h1v1h-1v1h1h1v-1v-1h1h1v-1v-1v-1v-1h-1v1v1v1h-1v-1h-1v-1h-1v1h-1h-1M5,-20v-1v-1v-1v-1h-1v-1h-1v1v1h-1v-1v-1h-1h-1M3,-23h1M4,-25h1h1h1v1h-1v1h1h1h1v-1h1v1h1h1h1v1h1v1v1h1v-1v-1h1v1v1v1h1v1v1h-1v1h1v1h-1h-1h-1v-1v-1v-1h1v-1h-1h-1h-1h-1v-1v-1v-1h1v1h1v1h-1M11,-19v1h1h1v1v1v1h-1v-1h-1v1v1h-1v1v1h1h1v-1h1h1h1h1h1v-1h-1h-1h-1h-1h-1M17,-13v1h-1v1h1v1v1h-1h-1h-1h-1v-1v-1h-1h-1h-1h-1v1h-1v1v1h1v1h1v1h-1h-1v-1M9,-6v1v1h1v-1M10,-4h1M10,-7v-1h1v-1v-1h1v1v1v1h-1M11,-10h-1v1h-1M8,-9h-1v-1v-1v-1v-1h1h1v1h-1v1M9,-13v-1h-1v-1h1h1v-1v-1h1h1M10,-17h-1v1M8,-15h-1v1h-1v-1h-1v-1h-1h-1v-1h-1v1v1h-1v1v1h1v-1h1h1v1v1h-1h-1v1v1h-1v-1h-1v-1h1M0,-12h-1h-1v-1v-1v-1h-1h-1v1h1v1v1h-1v-1h-1h-1h-1v-1v-1h1h1v1h-1M-5,-15v-1h1h1h1h1h1v-1h1v1M0,-17h-1v-1v-1h-1v-1h1v-1h-1v-1h-1h-1v1h-1v-1h-1h-1h-1v1h-1h-1v1h-1v-1v-1h1h1v-1v-1h-1h-1v1h1M-11,-20v1h-1v-1h-1v1v1h1h1v1h1v-1h1v-1v-1h1v1h1h1h1v1h1v1h-1h-1h-1h-1v-1h1h1M-8,-17h-1v1h-1h-1h-1v1v1v1h1v-1v-1h1v1v1v1h1v-1h1v-1v-1h-1v1M-8,-15v-1h1h1M-8,-13v1h1h1v1h-1h-1v1h1h1h1v1h-1h-1v1h-1v-1h-1v-1v-1h-1v1v1v1h-1v1v1v1v1h1h1v-1v-1h-1v1M-10,-6v-1h1v-1M-9,-4v1h-1h-1h-1v-1h-1h-1v1v1h1v-1M-13,-2h1h1h1h1v1M-12,-2v1v1v1v1h1M-12,2h-1v-1h-1v-1v-1h1v1M-14,1v1v1h-1v-1M-15,3h-1v1M-14,3h1M-14,-4v-1h-1v1M-14,-5h1h1v-1v-1h-1v-1v-1h1v-1v-1h-1h-1v1v1h-1v-1h-1v-1v-1h1v1M-15,-12v-1h1h1v1h-1M-13,-12h1h1v1v1v1M-13,-13v-1v-1M-13,-14h-1h-1h-1v1M-14,-10h1M-12,-9v1M-13,-7v1M-7,-8h1M-5,-9h1v-1v-1h1h1h1v1h1v1h1v1v1h-1v-1h-1v1v1h-1v1h1h1v-1h1h1h1h1v-1h-1h-1v-1v-1h1v-1h1v1v1h1v-1h1v-1v-1v-1v-1h-1v1v1h-1h-1M5,-11v1M5,-13v-1M5,-8v1v1v1M4,-8h-1M-2,-5v1v1h-1v-1v-1v-1M-3,-4h-1v1M-4,-4h-1M-1,-8v-1h-1h-1v-1h1M-4,-11h-1v-1M-12,-16v-1M-4,-17h1h1v-1h-1v-1h-1v-1h-1h-1v-1h-1v1M-4,-20h1v-1M-9,-19h-1M0,-16v1h-1v1v1h1v-1M3,-12v-1M4,-14v-1h-1M3,-17v-1M4,-16v-1h1M13,-11h1v-1h-1M14,-12h1v1v1h-1M15,-10h1M12,-13h-1M15,-18v1v1M16,-17v-1M17,-19v-1v-1v-1v-1v-1h-1v-1h-1v1h-1v-1h-1v1h-1v-1h-1v1M11,-25h-1h-1h-1v1M14,-24v1h1h1M16,-25h1M8,-23v1v1M8,-22h-1h-1M6,-20v1h1M6,-19h-1M-2,-25h-1h-1h-1v1h1h1M-5,-25h-1h-1M-12,-25h-1h-1M-16,-25h-1M-16,-24v1M-16,-18v1M-17,-4v1M-17,7h1M-14,7v-1v-1M-9,3h1v-1v-1h-1M-8,-1h1v-1v-1M-7,-2h1v1h1M-2,-1v1h-1" transform="scale(6.117)rotate(180)" fill="none" stroke="white" stroke-width="0.674" stroke-linecap="square" stroke-linejoin="miter"></path></svg>