<?xml version="1.0" encoding="UTF-8" standalone="no"?>
<svg xmlns="http://www.w3.org/2000/svg" class="card" face="1B" height="3.5in" preserveAspectRatio="none" viewBox="-120 -168 240 336" width="2.5in"><rect width="239" height="335" x="-119.5" y="-167.5" rx="12" ry="12" fill="white" stroke="black"></rect><rect width="216.095" height="313.967" x="-108.047" y="-156.983" fill="black"></rect><path d="M0,0v-1v-1h1v1h1h1h1v1h-1h-1v1h1h1v1h-1h-1v1v1h1v1v1h-1v1h1v1h-1v1v1v1h-1v-1h-1v-1h-1v-1v-1v-1h1v1v1h1v-1v-1v-1h1M1,5h-1v-1h1v-1h-1h-1h-1v1h-1h-1v-1h1v-1h-1h-1v1h-1h-1h-1v-1h-1h-1h-1v-1v-1h1v1h1h1h1v-1h-1v-1h-1v-1h-1v-1h1h1h1v-1v-1v-1h-1v1h-1v1h-1h-1v-1h-1v1h-1v1v1h-1v-1h-1v1v1v1v1h1h1v-1v-1h-1v1M-13,-1h1v-1h1v-1h-1M-11,-2v1h1M-12,-1v1v1v1v1h1v1h1v-1h1v1h1h1v1h-1v1h-1v-1h-1v1h-1h-1h-1v1h-1h-1v1v1v1h-1h-1v-1h1v-1h-1v-1h1v-1h1v-1v-1v-1h1h1v-1h-1h-1h-1h-1v1v1v1h1v-1v-1M-17,5v1M-17,2v-1h1v-1v-1h-1v-1h1v-1h-1v-1h1h1v-1v-1h1v-1v-1h1v1h1h1h1h1h1h1h1v1h1h1v1v1h-1h-1v-1h1M-6,-4v1v1h1v1h-1h-1v-1h-1M-6,-1v1v1v1h-1M-6,1h1v-1M-5,-2v-1h1h1M-4,-6v-1v-1h-1v1M-5,-8v-1v-1v-1v-1h-1v-1v-1h-1v-1h-1h-1h-1h-1h-1h-1v-1h1v-1h-1v-1h-1v1v1h-1v1h-1v1h-1v-1v-1v-1v-1h1v-1v-1h-1v1M-17,-20v-1v-1h1h1v-1v-1h1v1v1h1v-1h1h1h1v-1h1h1v1h-1v1h1v1h-1v1v1h-1h-1v1h1h1v1h1v1h-1h-1h-1v-1h1M-8,-16h1h1h1h1v1h-1h-1M-5,-15v1v1h1h1v-1h-1M-3,-14h1v1h1v1h1h1v1v1h1v-1v-1h1v1h1v1v1v1h1v1h-1h-1v-1h-1v1v1v1h-1v1M2,-5h1h1v-1h-1M4,-6h1v1h1v-1h1v-1h1h1h1v-1h1v-1h-1h-1v1h-1h-1h-1v-1h-1v-1v-1h1v-1h-1v-1h1v-1h-1h-1h-1v-1h-1v1v1h1h1v1M2,-13h-1h-1v-1v-1h1v1M1,-15v-1v-1h-1v1h-1v1h-1v-1v-1v-1v-1v-1h-1v1h-1v1h-1h-1v1h1h1h1v1v1M-3,-17v-1M-6,-17h-1v-1h-1v-1v-1h1v1h1h1v-1h1v-1h-1v-1v-1v-1h1h1v-1h1h1v1h1h1v1v1h-1v-1h-1v1v1h-1h-1v-1v-1h1v1M-2,-23v-1M-3,-23h-1v1M-1,-21v1v1h1v-1v-1h1v1h1v-1v-1h1h1v-1h-1v-1v-1h-1h-1h-1M2,-25v1v1M3,-25h1h1v1h1v-1h1h1h1v1h1h1h1v1h-1h-1v1h1h1h1v-1h1v-1h1v-1h1h1v1h-1v1h-1v1h-1v1h1h1v1h-1h-1v1h1h1h1v-1v-1v-1v-1M17,-22h-1M17,-19v1v1v1v1v1v1h-1v-1v-1v-1h-1v1v1h-1v1v1v1v1h-1v-1h-1v-1v-1h1v1M13,-13v-1v-1h1v-1v-1h-1v-1h-1v-1h1v-1h-1h-1h-1v1h1v1h-1h-1v-1v-1h-1h-1v-1v-1h-1v1v1h-1v1h-1v1h-1v1v1h1v-1h1v1h1v1h-1h-1M6,-15h1v1v1v1h1h1v1h-1v1h-1v1h1M7,-10v-1M8,-10h1h1h1h1v1h1h1v1h-1h-1v1h-1M11,-10v-1h-1v-1v-1h1v1M11,-13v-1h1v-1h-1v-1h1h1M12,-16v-1h-1h-1v1h-1v1h1v1h-1v1h-1v-1v-1v-1v-1h1M8,-17h-1v1M7,-17h-1v-1h-1M6,-18h1h1v-1h-1h-1M3,-16h-1v-1v-1h-1h-1h-1v1M1,-18v-1h1h1v-1v-1h1h1v-1v-1h1h1h1v1h1v1h1h1h1h1M9,-21h-1M9,-22v-1M8,-23v-1h-1M4,-21v1M13,-18h1h1v1h1v-1M14,-11h1h1v-1h-1v-1M16,-12h1v1M15,-25h-1h-1v1M13,-25h-1h-1h-1M5,-24h-1M-3,-25h-1h-1h-1v1v1v1v1v1M-6,-21h-1v-1v-1v-1v-1h-1h-1h-1h-1h-1h-1v1h1h1M-13,-25h-1h-1h-1v1v1h-1v-1v-1M-1,-15v1M6,-11v1M6,-8v1M6,-5v1h-1M2,-8v-1h1v-1M1,-11h-1M-1,-12h-1h-1v1v1v1h-1v-1v-1v-1M-11,-18h-1v-1v-1h1v-1h1v-1h-1h-1v1h-1h-1v1h1v1h-1h-1v-1v-1h-1M-15,-19v1v1h-1v1M-10,-21v1M-17,-14v1v1v1h1v1h1h1v-1h-1v-1h-1v-1h1v-1h1v-1M-14,-14v1h1h1h1v1v1v1h-1v1h-1v-1v-1h1v-1h-1h-1M-13,-9h-1h-1h-1h-1v-1M-17,-9v1h1v1v1h-1v1h1M-17,-6v-1M-16,-7h1v-1M-12,-9v1h1v-1h1v-1h1v-1v-1h1v-1v-1h-1h-1h-1h-1h-1M-10,-14v1v1v1M-10,-13h1M-8,-13h1v1v1v1v1h1v-1v-1M-6,-9v1h-1h-1h-1v-1h1v-1v-1M-9,-8h-1M-9,-7v1h-1h-1h-1h-1v1h-1v1M-10,-6v1M-17,-1v1M-13,3v1v1h-1v1M-14,5v-1M-13,5h1h1M-12,5v-1M-9,-4h1M-9,-1v1M-3,2h1M1,3v-1v-1v-1M1,8v1" transform="scale(6.117)" fill="none" stroke="white" stroke-width="0.674" stroke-linecap="square" stroke-linejoin="miter"></path><path d="M0,0v-1v-1h1v1h1h1h1v1h-1h-1v1h1h1v1h-1h-1v1v1h1v1v1h-1v1h1v1h-1v1v1v1h-1v-1h-1v-1h-1v-1v-1v-1h1v1v1h1v-1v-1v-1h1M1,5h-1v-1h1v-1h-1h-1h-1v1h-1h-1v-1h1v-1h-1h-1v1h-1h-1h-1v-1h-1h-1h-1v-1v-1h1v1h1h1h1v-1h-1v-1h-1v-1h-1v-1h1h1h1v-1v-1v-1h-1v1h-1v1h-1h-1v-1h-1v1h-1v1v1h-1v-1h-1v1v1v1v1h1h1v-1v-1h-1v1M-13,-1h1v-1h1v-1h-1M-11,-2v1h1M-12,-1v1v1v1v1h1v1h1v-1h1v1h1h1v1h-1v1h-1v-1h-1v1h-1h-1h-1v1h-1h-1v1v1v1h-1h-1v-1h1v-1h-1v-1h1v-1h1v-1v-1v-1h1h1v-1h-1h-1h-1h-1v1v1v1h1v-1v-1M-17,5v1M-17,2v-1h1v-1v-1h-1v-1h1v-1h-1v-1h1h1v-1v-1h1v-1v-1h1v1h1h1h1h1h1h1h1v1h1h1v1v1h-1h-1v-1h1M-6,-4v1v1h1v1h-1h-1v-1h-1M-6,-1v1v1v1h-1M-6,1h1v-1M-5,-2v-1h1h1M-4,-6v-1v-1h-1v1M-5,-8v-1v-1v-1v-1h-1v-1v-1h-1v-1h-1h-1h-1h-1h-1h-1v-1h1v-1h-1v-1h-1v1v1h-1v1h-1v1h-1v-1v-1v-1v-1h1v-1v-1h-1v1M-17,-20v-1v-1h1h1v-1v-1h1v1v1h1v-1h1h1h1v-1h1h1v1h-1v1h1v1h-1v1v1h-1h-1v1h1h1v1h1v1h-1h-1h-1v-1h1M-8,-16h1h1h1h1v1h-1h-1M-5,-15v1v1h1h1v-1h-1M-3,-14h1v1h1v1h1h1v1v1h1v-1v-1h1v1h1v1v1v1h1v1h-1h-1v-1h-1v1v1v1h-1v1M2,-5h1h1v-1h-1M4,-6h1v1h1v-1h1v-1h1h1h1v-1h1v-1h-1h-1v1h-1h-1h-1v-1h-1v-1v-1h1v-1h-1v-1h1v-1h-1h-1h-1v-1h-1v1v1h1h1v1M2,-13h-1h-1v-1v-1h1v1M1,-15v-1v-1h-1v1h-1v1h-1v-1v-1v-1v-1v-1h-1v1h-1v1h-1h-1v1h1h1h1v1v1M-3,-17v-1M-6,-17h-1v-1h-1v-1v-1h1v1h1h1v-1h1v-1h-1v-1v-1v-1h1h1v-1h1h1v1h1h1v1v1h-1v-1h-1v1v1h-1h-1v-1v-1h1v1M-2,-23v-1M-3,-23h-1v1M-1,-21v1v1h1v-1v-1h1v1h1v-1v-1h1h1v-1h-1v-1v-1h-1h-1h-1M2,-25v1v1M3,-25h1h1v1h1v-1h1h1h1v1h1h1h1v1h-1h-1v1h1h1h1v-1h1v-1h1v-1h1h1v1h-1v1h-1v1h-1v1h1h1v1h-1h-1v1h1h1h1v-1v-1v-1v-1M17,-22h-1M17,-19v1v1v1v1v1v1h-1v-1v-1v-1h-1v1v1h-1v1v1v1v1h-1v-1h-1v-1v-1h1v1M13,-13v-1v-1h1v-1v-1h-1v-1h-1v-1h1v-1h-1h-1h-1v1h1v1h-1h-1v-1v-1h-1h-1v-1v-1h-1v1v1h-1v1h-1v1h-1v1v1h1v-1h1v1h1v1h-1h-1M6,-15h1v1v1v1h1h1v1h-1v1h-1v1h1M7,-10v-1M8,-10h1h1h1h1v1h1h1v1h-1h-1v1h-1M11,-10v-1h-1v-1v-1h1v1M11,-13v-1h1v-1h-1v-1h1h1M12,-16v-1h-1h-1v1h-1v1h1v1h-1v1h-1v-1v-1v-1v-1h1M8,-17h-1v1M7,-17h-1v-1h-1M6,-18h1h1v-1h-1h-1M3,-16h-1v-1v-1h-1h-1h-1v1M1,-18v-1h1h1v-1v-1h1h1v-1v-1h1h1h1v1h1v1h1h1h1h1M9,-21h-1M9,-22v-1M8,-23v-1h-1M4,-21v1M13,-18h1h1v1h1v-1M14,-11h1h1v-1h-1v-1M16,-12h1v1M15,-25h-1h-1v1M13,-25h-1h-1h-1M5,-24h-1M-3,-25h-1h-1h-1v1v1v1v1v1M-6,-21h-1v-1v-1v-1v-1h-1h-1h-1h-1h-1h-1v1h1h1M-13,-25h-1h-1h-1v1v1h-1v-1v-1M-1,-15v1M6,-11v1M6,-8v1M6,-5v1h-1M2,-8v-1h1v-1M1,-11h-1M-1,-12h-1h-1v1v1v1h-1v-1v-1v-1M-11,-18h-1v-1v-1h1v-1h1v-1h-1h-1v1h-1h-1v1h1v1h-1h-1v-1v-1h-1M-15,-19v1v1h-1v1M-10,-21v1M-17,-14v1v1v1h1v1h1h1v-1h-1v-1h-1v-1h1v-1h1v-1M-14,-14v1h1h1h1v1v1v1h-1v1h-1v-1v-1h1v-1h-1h-1M-13,-9h-1h-1h-1h-1v-1M-17,-9v1h1v1v1h-1v1h1M-17,-6v-1M-16,-7h1v-1M-12,-9v1h1v-1h1v-1h1v-1v-1h1v-1v-1h-1h-1h-1h-1h-1M-10,-14v1v1v1M-10,-13h1M-8,-13h1v1v1v1v1h1v-1v-1M-6,-9v1h-1h-1h-1v-1h1v-1v-1M-9,-8h-1M-9,-7v1h-1h-1h-1h-1v1h-1v1M-10,-6v1M-17,-1v1M-13,3v1v1h-1v1M-14,5v-1M-13,5h1h1M-12,5v-1M-9,-4h1M-9,-1v1M-3,2h1M1,3v-1v-1v-1M1,8v1" transform="scale(6.117)rotate(180)" fill="none" stroke="white" stroke-width="0.674" stroke-linecap="square" stroke-linejoin="miter"></path></svg>